<svg width="143" height="226" viewBox="0 0 143 226" fill="none" xmlns="http://www.w3.org/2000/svg">
<g clip-path="url(#clip0_14_1979)">
<path d="M10.2246 17.0352C10.2246 18.3242 9.75911 19.3398 8.82812 20.082C7.90365 20.8242 6.61458 21.1953 4.96094 21.1953C3.4375 21.1953 2.08984 20.9089 0.917969 20.3359V17.5234C1.88151 17.9531 2.69531 18.2559 3.35938 18.4316C4.02995 18.6074 4.64193 18.6953 5.19531 18.6953C5.85938 18.6953 6.36719 18.5684 6.71875 18.3145C7.07682 18.0605 7.25586 17.6829 7.25586 17.1816C7.25586 16.9017 7.17773 16.6543 7.02148 16.4395C6.86523 16.2181 6.63411 16.0065 6.32812 15.8047C6.02865 15.6029 5.41341 15.2806 4.48242 14.8379C3.61003 14.4277 2.95573 14.0339 2.51953 13.6562C2.08333 13.2786 1.73503 12.8392 1.47461 12.3379C1.21419 11.8366 1.08398 11.2507 1.08398 10.5801C1.08398 9.31706 1.51042 8.32422 2.36328 7.60156C3.22266 6.87891 4.40755 6.51758 5.91797 6.51758C6.66016 6.51758 7.36654 6.60547 8.03711 6.78125C8.71419 6.95703 9.42057 7.20443 10.1562 7.52344L9.17969 9.87695C8.41797 9.56445 7.78646 9.34635 7.28516 9.22266C6.79036 9.09896 6.30208 9.03711 5.82031 9.03711C5.2474 9.03711 4.80794 9.17057 4.50195 9.4375C4.19596 9.70443 4.04297 10.0527 4.04297 10.4824C4.04297 10.7493 4.10482 10.9837 4.22852 11.1855C4.35221 11.3809 4.54753 11.5729 4.81445 11.7617C5.08789 11.944 5.72917 12.276 6.73828 12.7578C8.07292 13.3958 8.98763 14.0371 9.48242 14.6816C9.97721 15.3197 10.2246 16.1042 10.2246 17.0352ZM19.5117 21L18.9355 19.5156H18.8574C18.3561 20.1471 17.8385 20.5866 17.3047 20.834C16.7773 21.0749 16.0872 21.1953 15.2344 21.1953C14.1862 21.1953 13.3594 20.8958 12.7539 20.2969C12.1549 19.6979 11.8555 18.8451 11.8555 17.7383C11.8555 16.5794 12.2591 15.7266 13.0664 15.1797C13.8802 14.6263 15.1042 14.3203 16.7383 14.2617L18.6328 14.2031V13.7246C18.6328 12.6178 18.0664 12.0645 16.9336 12.0645C16.0612 12.0645 15.0358 12.3281 13.8574 12.8555L12.8711 10.8438C14.1276 10.1862 15.5208 9.85742 17.0508 9.85742C18.5156 9.85742 19.6387 10.1764 20.4199 10.8145C21.2012 11.4525 21.5918 12.4225 21.5918 13.7246V21H19.5117ZM18.6328 15.9414L17.4805 15.9805C16.6146 16.0065 15.9701 16.1628 15.5469 16.4492C15.1237 16.7357 14.9121 17.1719 14.9121 17.7578C14.9121 18.5977 15.3939 19.0176 16.3574 19.0176C17.0475 19.0176 17.5977 18.819 18.0078 18.4219C18.4245 18.0247 18.6328 17.4974 18.6328 16.8398V15.9414ZM23.1055 10.082H26.3672L28.4277 16.2246C28.6035 16.7585 28.724 17.39 28.7891 18.1191H28.8477C28.9193 17.4486 29.0592 16.8171 29.2676 16.2246L31.2891 10.082H34.4824L29.8633 22.3965C29.4401 23.5358 28.8346 24.3887 28.0469 24.9551C27.2656 25.5215 26.3509 25.8047 25.3027 25.8047C24.7884 25.8047 24.2839 25.7493 23.7891 25.6387V23.2754C24.1471 23.36 24.5378 23.4023 24.9609 23.4023C25.4883 23.4023 25.9473 23.2396 26.3379 22.9141C26.735 22.5951 27.0443 22.11 27.2656 21.459L27.4414 20.9219L23.1055 10.082ZM40.6543 18.8223C41.1751 18.8223 41.8001 18.7083 42.5293 18.4805V20.6973C41.7871 21.0293 40.8757 21.1953 39.7949 21.1953C38.6035 21.1953 37.7344 20.8958 37.1875 20.2969C36.6471 19.6914 36.377 18.7865 36.377 17.582V12.3184H34.9512V11.0586L36.5918 10.0625L37.4512 7.75781H39.3555V10.082H42.4121V12.3184H39.3555V17.582C39.3555 18.0052 39.4727 18.3177 39.707 18.5195C39.9479 18.7214 40.2637 18.8223 40.6543 18.8223ZM57.5586 17.7578C57.5586 18.8776 57.168 19.7305 56.3867 20.3164C55.612 20.9023 54.4499 21.1953 52.9004 21.1953C52.1061 21.1953 51.429 21.14 50.8691 21.0293C50.3092 20.9251 49.7852 20.7689 49.2969 20.5605V18.0996C49.8503 18.36 50.472 18.5781 51.1621 18.7539C51.8587 18.9297 52.4707 19.0176 52.998 19.0176C54.0788 19.0176 54.6191 18.7051 54.6191 18.0801C54.6191 17.8457 54.5475 17.6569 54.4043 17.5137C54.2611 17.3639 54.0137 17.1979 53.6621 17.0156C53.3105 16.8268 52.8418 16.6087 52.2559 16.3613C51.416 16.0098 50.7975 15.6842 50.4004 15.3848C50.0098 15.0853 49.7233 14.7435 49.541 14.3594C49.3652 13.9688 49.2773 13.4902 49.2773 12.9238C49.2773 11.9538 49.6517 11.2051 50.4004 10.6777C51.1556 10.1439 52.2233 9.87695 53.6035 9.87695C54.9186 9.87695 56.1979 10.1634 57.4414 10.7363L56.543 12.8848C55.9961 12.6504 55.485 12.4583 55.0098 12.3086C54.5345 12.1589 54.0495 12.084 53.5547 12.084C52.6758 12.084 52.2363 12.3216 52.2363 12.7969C52.2363 13.0638 52.3763 13.2949 52.6562 13.4902C52.9427 13.6855 53.5645 13.9753 54.5215 14.3594C55.3743 14.7044 55.9993 15.0267 56.3965 15.3262C56.7936 15.6257 57.0866 15.9707 57.2754 16.3613C57.4642 16.752 57.5586 17.2174 57.5586 17.7578ZM66.8164 21L66.2402 19.5156H66.1621C65.6608 20.1471 65.1432 20.5866 64.6094 20.834C64.082 21.0749 63.3919 21.1953 62.5391 21.1953C61.4909 21.1953 60.6641 20.8958 60.0586 20.2969C59.4596 19.6979 59.1602 18.8451 59.1602 17.7383C59.1602 16.5794 59.5638 15.7266 60.3711 15.1797C61.1849 14.6263 62.4089 14.3203 64.043 14.2617L65.9375 14.2031V13.7246C65.9375 12.6178 65.3711 12.0645 64.2383 12.0645C63.3659 12.0645 62.3405 12.3281 61.1621 12.8555L60.1758 10.8438C61.4323 10.1862 62.8255 9.85742 64.3555 9.85742C65.8203 9.85742 66.9434 10.1764 67.7246 10.8145C68.5059 11.4525 68.8965 12.4225 68.8965 13.7246V21H66.8164ZM65.9375 15.9414L64.7852 15.9805C63.9193 16.0065 63.2747 16.1628 62.8516 16.4492C62.4284 16.7357 62.2168 17.1719 62.2168 17.7578C62.2168 18.5977 62.6986 19.0176 63.6621 19.0176C64.3522 19.0176 64.9023 18.819 65.3125 18.4219C65.7292 18.0247 65.9375 17.4974 65.9375 16.8398V15.9414ZM82.0508 21H79.0723V14.623C79.0723 13.0475 78.4863 12.2598 77.3145 12.2598C76.4811 12.2598 75.8789 12.543 75.5078 13.1094C75.1367 13.6758 74.9512 14.5938 74.9512 15.8633V21H71.9727V5.80469H74.9512V8.90039C74.9512 9.14128 74.9284 9.70768 74.8828 10.5996L74.8145 11.4785H74.9707C75.6348 10.4108 76.6895 9.87695 78.1348 9.87695C79.4173 9.87695 80.3906 10.222 81.0547 10.9121C81.7188 11.6022 82.0508 12.5918 82.0508 13.8809V21ZM84.9902 7.25977C84.9902 6.28971 85.5306 5.80469 86.6113 5.80469C87.6921 5.80469 88.2324 6.28971 88.2324 7.25977C88.2324 7.72201 88.0957 8.08333 87.8223 8.34375C87.5553 8.59766 87.1517 8.72461 86.6113 8.72461C85.5306 8.72461 84.9902 8.23633 84.9902 7.25977ZM88.0957 21H85.1172V10.082H88.0957V21ZM97.2656 12.3184H94.6875V21H91.709V12.3184H90.0684V10.8828L91.709 10.082V9.28125C91.709 8.03776 92.015 7.12956 92.627 6.55664C93.2389 5.98372 94.2188 5.69727 95.5664 5.69727C96.5951 5.69727 97.5098 5.85026 98.3105 6.15625L97.5488 8.34375C96.9499 8.15495 96.3965 8.06055 95.8887 8.06055C95.4655 8.06055 95.1595 8.1875 94.9707 8.44141C94.7819 8.6888 94.6875 9.00781 94.6875 9.39844V10.082H97.2656V12.3184ZM105.918 21L105.342 19.5156H105.264C104.762 20.1471 104.245 20.5866 103.711 20.834C103.184 21.0749 102.493 21.1953 101.641 21.1953C100.592 21.1953 99.7656 20.8958 99.1602 20.2969C98.5612 19.6979 98.2617 18.8451 98.2617 17.7383C98.2617 16.5794 98.6654 15.7266 99.4727 15.1797C100.286 14.6263 101.51 14.3203 103.145 14.2617L105.039 14.2031V13.7246C105.039 12.6178 104.473 12.0645 103.34 12.0645C102.467 12.0645 101.442 12.3281 100.264 12.8555L99.2773 10.8438C100.534 10.1862 101.927 9.85742 103.457 9.85742C104.922 9.85742 106.045 10.1764 106.826 10.8145C107.607 11.4525 107.998 12.4225 107.998 13.7246V21H105.918ZM105.039 15.9414L103.887 15.9805C103.021 16.0065 102.376 16.1628 101.953 16.4492C101.53 16.7357 101.318 17.1719 101.318 17.7578C101.318 18.5977 101.8 19.0176 102.764 19.0176C103.454 19.0176 104.004 18.819 104.414 18.4219C104.831 18.0247 105.039 17.4974 105.039 16.8398V15.9414ZM114.053 21H111.074V5.80469H114.053V21ZM124.121 21L123.545 19.5156H123.467C122.965 20.1471 122.448 20.5866 121.914 20.834C121.387 21.0749 120.697 21.1953 119.844 21.1953C118.796 21.1953 117.969 20.8958 117.363 20.2969C116.764 19.6979 116.465 18.8451 116.465 17.7383C116.465 16.5794 116.868 15.7266 117.676 15.1797C118.49 14.6263 119.714 14.3203 121.348 14.2617L123.242 14.2031V13.7246C123.242 12.6178 122.676 12.0645 121.543 12.0645C120.671 12.0645 119.645 12.3281 118.467 12.8555L117.48 10.8438C118.737 10.1862 120.13 9.85742 121.66 9.85742C123.125 9.85742 124.248 10.1764 125.029 10.8145C125.811 11.4525 126.201 12.4225 126.201 13.7246V21H124.121ZM123.242 15.9414L122.09 15.9805C121.224 16.0065 120.579 16.1628 120.156 16.4492C119.733 16.7357 119.521 17.1719 119.521 17.7578C119.521 18.5977 120.003 19.0176 120.967 19.0176C121.657 19.0176 122.207 18.819 122.617 18.4219C123.034 18.0247 123.242 17.4974 123.242 16.8398V15.9414ZM135.371 9.87695C135.775 9.87695 136.11 9.90625 136.377 9.96484L136.152 12.7578C135.911 12.6927 135.618 12.6602 135.273 12.6602C134.323 12.6602 133.581 12.9043 133.047 13.3926C132.52 13.8809 132.256 14.5645 132.256 15.4434V21H129.277V10.082H131.533L131.973 11.918H132.119C132.458 11.306 132.913 10.8145 133.486 10.4434C134.066 10.0658 134.694 9.87695 135.371 9.87695ZM138.232 7.25977C138.232 6.28971 138.773 5.80469 139.854 5.80469C140.934 5.80469 141.475 6.28971 141.475 7.25977C141.475 7.72201 141.338 8.08333 141.064 8.34375C140.798 8.59766 140.394 8.72461 139.854 8.72461C138.773 8.72461 138.232 8.23633 138.232 7.25977ZM141.338 21H138.359V10.082H141.338V21Z" fill="white"/>
<g clip-path="url(#clip1_14_1979)">
<path d="M1.57031 48.5781H4.79688C6.3125 48.5781 7.40885 48.8047 8.08594 49.2578C8.76302 49.7109 9.10156 50.4271 9.10156 51.4062C9.10156 52.0833 8.91146 52.6432 8.53125 53.0859C8.15625 53.5234 7.60677 53.8073 6.88281 53.9375V54.0156C8.61719 54.3125 9.48438 55.224 9.48438 56.75C9.48438 57.7708 9.13802 58.5677 8.44531 59.1406C7.75781 59.7135 6.79427 60 5.55469 60H1.57031V48.5781ZM2.89844 53.4688H5.08594C6.02344 53.4688 6.69792 53.3229 7.10938 53.0312C7.52083 52.7344 7.72656 52.237 7.72656 51.5391C7.72656 50.8984 7.4974 50.4375 7.03906 50.1562C6.58073 49.8698 5.85156 49.7266 4.85156 49.7266H2.89844V53.4688ZM2.89844 54.5938V58.8672H5.28125C6.20312 58.8672 6.89583 58.6901 7.35938 58.3359C7.82812 57.9766 8.0625 57.4167 8.0625 56.6562C8.0625 55.9479 7.82292 55.4271 7.34375 55.0938C6.86979 54.7604 6.14583 54.5938 5.17188 54.5938H2.89844ZM19.1406 55.7109C19.1406 57.1068 18.7891 58.1979 18.0859 58.9844C17.3828 59.7656 16.4115 60.1562 15.1719 60.1562C14.4062 60.1562 13.7266 59.9766 13.1328 59.6172C12.5391 59.2578 12.0807 58.7422 11.7578 58.0703C11.4349 57.3984 11.2734 56.612 11.2734 55.7109C11.2734 54.3151 11.6224 53.2292 12.3203 52.4531C13.0182 51.6719 13.987 51.2812 15.2266 51.2812C16.4245 51.2812 17.375 51.6797 18.0781 52.4766C18.7865 53.2734 19.1406 54.3516 19.1406 55.7109ZM12.6172 55.7109C12.6172 56.8047 12.8359 57.638 13.2734 58.2109C13.7109 58.7839 14.3542 59.0703 15.2031 59.0703C16.0521 59.0703 16.6953 58.7865 17.1328 58.2188C17.5755 57.6458 17.7969 56.8099 17.7969 55.7109C17.7969 54.6224 17.5755 53.7969 17.1328 53.2344C16.6953 52.6667 16.0469 52.3828 15.1875 52.3828C14.3385 52.3828 13.6979 52.6615 13.2656 53.2188C12.8333 53.776 12.6172 54.6068 12.6172 55.7109ZM26.9453 57.6641C26.9453 58.4609 26.6484 59.0755 26.0547 59.5078C25.4609 59.9401 24.6276 60.1562 23.5547 60.1562C22.4193 60.1562 21.5339 59.9766 20.8984 59.6172V58.4141C21.3099 58.6224 21.75 58.7865 22.2188 58.9062C22.6927 59.026 23.1484 59.0859 23.5859 59.0859C24.263 59.0859 24.7839 58.9792 25.1484 58.7656C25.513 58.5469 25.6953 58.2161 25.6953 57.7734C25.6953 57.4401 25.5495 57.1562 25.2578 56.9219C24.9714 56.6823 24.4089 56.401 23.5703 56.0781C22.7734 55.7812 22.2057 55.5234 21.8672 55.3047C21.5339 55.0807 21.2839 54.8281 21.1172 54.5469C20.9557 54.2656 20.875 53.9297 20.875 53.5391C20.875 52.8411 21.1589 52.2917 21.7266 51.8906C22.2943 51.4844 23.0729 51.2812 24.0625 51.2812C24.9844 51.2812 25.8854 51.4688 26.7656 51.8438L26.3047 52.8984C25.4453 52.5443 24.6667 52.3672 23.9688 52.3672C23.3542 52.3672 22.8906 52.4635 22.5781 52.6562C22.2656 52.849 22.1094 53.1146 22.1094 53.4531C22.1094 53.6823 22.1667 53.8776 22.2812 54.0391C22.401 54.2005 22.5911 54.3542 22.8516 54.5C23.112 54.6458 23.612 54.8568 24.3516 55.1328C25.3672 55.5026 26.0521 55.875 26.4062 56.25C26.7656 56.625 26.9453 57.0964 26.9453 57.6641ZM34.9219 60V54.4609C34.9219 53.763 34.763 53.2422 34.4453 52.8984C34.1276 52.5547 33.6302 52.3828 32.9531 52.3828C32.0521 52.3828 31.3932 52.6276 30.9766 53.1172C30.5651 53.6068 30.3594 54.4089 30.3594 55.5234V60H29.0625V47.8438H30.3594V51.5234C30.3594 51.9661 30.3385 52.3333 30.2969 52.625H30.375C30.6302 52.2135 30.9922 51.8906 31.4609 51.6562C31.9349 51.4167 32.474 51.2969 33.0781 51.2969C34.125 51.2969 34.9089 51.5469 35.4297 52.0469C35.9557 52.5417 36.2188 53.3307 36.2188 54.4141V60H34.9219ZM48.5703 57.6641C48.5703 58.4609 48.2734 59.0755 47.6797 59.5078C47.0859 59.9401 46.2526 60.1562 45.1797 60.1562C44.0443 60.1562 43.1589 59.9766 42.5234 59.6172V58.4141C42.9349 58.6224 43.375 58.7865 43.8438 58.9062C44.3177 59.026 44.7734 59.0859 45.2109 59.0859C45.888 59.0859 46.4089 58.9792 46.7734 58.7656C47.138 58.5469 47.3203 58.2161 47.3203 57.7734C47.3203 57.4401 47.1745 57.1562 46.8828 56.9219C46.5964 56.6823 46.0339 56.401 45.1953 56.0781C44.3984 55.7812 43.8307 55.5234 43.4922 55.3047C43.1589 55.0807 42.9089 54.8281 42.7422 54.5469C42.5807 54.2656 42.5 53.9297 42.5 53.5391C42.5 52.8411 42.7839 52.2917 43.3516 51.8906C43.9193 51.4844 44.6979 51.2812 45.6875 51.2812C46.6094 51.2812 47.5104 51.4688 48.3906 51.8438L47.9297 52.8984C47.0703 52.5443 46.2917 52.3672 45.5938 52.3672C44.9792 52.3672 44.5156 52.4635 44.2031 52.6562C43.8906 52.849 43.7344 53.1146 43.7344 53.4531C43.7344 53.6823 43.7917 53.8776 43.9062 54.0391C44.026 54.2005 44.2161 54.3542 44.4766 54.5C44.737 54.6458 45.237 54.8568 45.9766 55.1328C46.9922 55.5026 47.6771 55.875 48.0312 56.25C48.3906 56.625 48.5703 57.0964 48.5703 57.6641ZM55.9531 60L55.6953 58.7812H55.6328C55.2057 59.3177 54.7786 59.6823 54.3516 59.875C53.9297 60.0625 53.401 60.1562 52.7656 60.1562C51.9167 60.1562 51.25 59.9375 50.7656 59.5C50.2865 59.0625 50.0469 58.4401 50.0469 57.6328C50.0469 55.9036 51.4297 54.9974 54.1953 54.9141L55.6484 54.8672V54.3359C55.6484 53.6641 55.5026 53.1693 55.2109 52.8516C54.9245 52.5286 54.4635 52.3672 53.8281 52.3672C53.1146 52.3672 52.3073 52.5859 51.4062 53.0234L51.0078 52.0312C51.4297 51.8021 51.8906 51.6224 52.3906 51.4922C52.8958 51.362 53.401 51.2969 53.9062 51.2969C54.9271 51.2969 55.6823 51.5234 56.1719 51.9766C56.6667 52.4297 56.9141 53.1562 56.9141 54.1562V60H55.9531ZM53.0234 59.0859C53.8307 59.0859 54.4635 58.8646 54.9219 58.4219C55.3854 57.9792 55.6172 57.3594 55.6172 56.5625V55.7891L54.3203 55.8438C53.2891 55.8802 52.5443 56.0417 52.0859 56.3281C51.6328 56.6094 51.4062 57.0495 51.4062 57.6484C51.4062 58.1172 51.5469 58.474 51.8281 58.7188C52.1146 58.9635 52.513 59.0859 53.0234 59.0859ZM65.4531 60V54.4609C65.4531 53.763 65.2943 53.2422 64.9766 52.8984C64.6589 52.5547 64.1615 52.3828 63.4844 52.3828C62.5833 52.3828 61.9245 52.6276 61.5078 53.1172C61.0964 53.6068 60.8906 54.4089 60.8906 55.5234V60H59.5938V47.8438H60.8906V51.5234C60.8906 51.9661 60.8698 52.3333 60.8281 52.625H60.9062C61.1615 52.2135 61.5234 51.8906 61.9922 51.6562C62.4661 51.4167 63.0052 51.2969 63.6094 51.2969C64.6562 51.2969 65.4401 51.5469 65.9609 52.0469C66.487 52.5417 66.75 53.3307 66.75 54.4141V60H65.4531ZM70.7188 60H69.4219V51.4375H70.7188V60ZM69.3125 49.1172C69.3125 48.8203 69.3854 48.6042 69.5312 48.4688C69.6771 48.3281 69.8594 48.2578 70.0781 48.2578C70.2865 48.2578 70.4661 48.3281 70.6172 48.4688C70.7682 48.6094 70.8438 48.8255 70.8438 49.1172C70.8438 49.4089 70.7682 49.6276 70.6172 49.7734C70.4661 49.9141 70.2865 49.9844 70.0781 49.9844C69.8594 49.9844 69.6771 49.9141 69.5312 49.7734C69.3854 49.6276 69.3125 49.4089 69.3125 49.1172ZM77.3281 52.4453H75.1484V60H73.8516V52.4453H72.3203V51.8594L73.8516 51.3906V50.9141C73.8516 48.8099 74.7708 47.7578 76.6094 47.7578C77.0625 47.7578 77.5938 47.849 78.2031 48.0312L77.8672 49.0703C77.3672 48.9089 76.9401 48.8281 76.5859 48.8281C76.0964 48.8281 75.7344 48.9922 75.5 49.3203C75.2656 49.6432 75.1484 50.1641 75.1484 50.8828V51.4375H77.3281V52.4453ZM84.1562 60L83.8984 58.7812H83.8359C83.4089 59.3177 82.9818 59.6823 82.5547 59.875C82.1328 60.0625 81.6042 60.1562 80.9688 60.1562C80.1198 60.1562 79.4531 59.9375 78.9688 59.5C78.4896 59.0625 78.25 58.4401 78.25 57.6328C78.25 55.9036 79.6328 54.9974 82.3984 54.9141L83.8516 54.8672V54.3359C83.8516 53.6641 83.7057 53.1693 83.4141 52.8516C83.1276 52.5286 82.6667 52.3672 82.0312 52.3672C81.3177 52.3672 80.5104 52.5859 79.6094 53.0234L79.2109 52.0312C79.6328 51.8021 80.0938 51.6224 80.5938 51.4922C81.099 51.362 81.6042 51.2969 82.1094 51.2969C83.1302 51.2969 83.8854 51.5234 84.375 51.9766C84.8698 52.4297 85.1172 53.1562 85.1172 54.1562V60H84.1562ZM81.2266 59.0859C82.0339 59.0859 82.6667 58.8646 83.125 58.4219C83.5885 57.9792 83.8203 57.3594 83.8203 56.5625V55.7891L82.5234 55.8438C81.4922 55.8802 80.7474 56.0417 80.2891 56.3281C79.8359 56.6094 79.6094 57.0495 79.6094 57.6484C79.6094 58.1172 79.75 58.474 80.0312 58.7188C80.3177 58.9635 80.7161 59.0859 81.2266 59.0859Z" fill="white"/>
<path d="M9.17188 92H7.66406L4.59375 86.9766L1.46875 92H0.0625L3.85938 86.0312L0.320312 80.5781H1.78906L4.625 85.1016L7.48438 80.5781H8.89844L5.35938 85.9844L9.17188 92ZM11.9062 92H10.6094V83.4375H11.9062V92ZM10.5 81.1172C10.5 80.8203 10.5729 80.6042 10.7188 80.4688C10.8646 80.3281 11.0469 80.2578 11.2656 80.2578C11.474 80.2578 11.6536 80.3281 11.8047 80.4688C11.9557 80.6094 12.0312 80.8255 12.0312 81.1172C12.0312 81.4089 11.9557 81.6276 11.8047 81.7734C11.6536 81.9141 11.474 81.9844 11.2656 81.9844C11.0469 81.9844 10.8646 81.9141 10.7188 81.7734C10.5729 81.6276 10.5 81.4089 10.5 81.1172ZM20.1328 92H13.9219V91.1172L18.5938 84.4453H14.2109V83.4375H20.0156V84.4453L15.4062 90.9922H20.1328V92ZM33.0547 92V86.4297C33.0547 85.7474 32.9089 85.237 32.6172 84.8984C32.3255 84.5547 31.8724 84.3828 31.2578 84.3828C30.4505 84.3828 29.8542 84.6146 29.4688 85.0781C29.0833 85.5417 28.8906 86.2552 28.8906 87.2188V92H27.5938V86.4297C27.5938 85.7474 27.4479 85.237 27.1562 84.8984C26.8646 84.5547 26.4089 84.3828 25.7891 84.3828C24.9766 84.3828 24.3802 84.6276 24 85.1172C23.625 85.6016 23.4375 86.3984 23.4375 87.5078V92H22.1406V83.4375H23.1953L23.4062 84.6094H23.4688C23.7135 84.1927 24.0573 83.8672 24.5 83.6328C24.9479 83.3984 25.4479 83.2812 26 83.2812C27.3385 83.2812 28.2135 83.7656 28.625 84.7344H28.6875C28.9427 84.2865 29.3125 83.9323 29.7969 83.6719C30.2812 83.4115 30.8333 83.2812 31.4531 83.2812C32.4219 83.2812 33.1458 83.5312 33.625 84.0312C34.1094 84.526 34.3516 85.3203 34.3516 86.4141V92H33.0547ZM42.2969 92L42.0391 90.7812H41.9766C41.5495 91.3177 41.1224 91.6823 40.6953 91.875C40.2734 92.0625 39.7448 92.1562 39.1094 92.1562C38.2604 92.1562 37.5938 91.9375 37.1094 91.5C36.6302 91.0625 36.3906 90.4401 36.3906 89.6328C36.3906 87.9036 37.7734 86.9974 40.5391 86.9141L41.9922 86.8672V86.3359C41.9922 85.6641 41.8464 85.1693 41.5547 84.8516C41.2682 84.5286 40.8073 84.3672 40.1719 84.3672C39.4583 84.3672 38.651 84.5859 37.75 85.0234L37.3516 84.0312C37.7734 83.8021 38.2344 83.6224 38.7344 83.4922C39.2396 83.362 39.7448 83.2969 40.25 83.2969C41.2708 83.2969 42.026 83.5234 42.5156 83.9766C43.0104 84.4297 43.2578 85.1562 43.2578 86.1562V92H42.2969ZM39.3672 91.0859C40.1745 91.0859 40.8073 90.8646 41.2656 90.4219C41.7292 89.9792 41.9609 89.3594 41.9609 88.5625V87.7891L40.6641 87.8438C39.6328 87.8802 38.888 88.0417 38.4297 88.3281C37.9766 88.6094 37.75 89.0495 37.75 89.6484C37.75 90.1172 37.8906 90.474 38.1719 90.7188C38.4583 90.9635 38.8568 91.0859 39.3672 91.0859ZM48.7031 91.0859C48.9323 91.0859 49.1536 91.0703 49.3672 91.0391C49.5807 91.0026 49.75 90.9661 49.875 90.9297V91.9219C49.7344 91.9896 49.526 92.0443 49.25 92.0859C48.9792 92.1328 48.7344 92.1562 48.5156 92.1562C46.8594 92.1562 46.0312 91.2839 46.0312 89.5391V84.4453H44.8047V83.8203L46.0312 83.2812L46.5781 81.4531H47.3281V83.4375H49.8125V84.4453H47.3281V89.4844C47.3281 90 47.4505 90.3958 47.6953 90.6719C47.9401 90.9479 48.276 91.0859 48.7031 91.0859ZM52.8906 92H51.5938V79.8438H52.8906V92ZM60.9062 92L60.6484 90.7812H60.5859C60.1589 91.3177 59.7318 91.6823 59.3047 91.875C58.8828 92.0625 58.3542 92.1562 57.7188 92.1562C56.8698 92.1562 56.2031 91.9375 55.7188 91.5C55.2396 91.0625 55 90.4401 55 89.6328C55 87.9036 56.3828 86.9974 59.1484 86.9141L60.6016 86.8672V86.3359C60.6016 85.6641 60.4557 85.1693 60.1641 84.8516C59.8776 84.5286 59.4167 84.3672 58.7812 84.3672C58.0677 84.3672 57.2604 84.5859 56.3594 85.0234L55.9609 84.0312C56.3828 83.8021 56.8438 83.6224 57.3438 83.4922C57.849 83.362 58.3542 83.2969 58.8594 83.2969C59.8802 83.2969 60.6354 83.5234 61.125 83.9766C61.6198 84.4297 61.8672 85.1562 61.8672 86.1562V92H60.9062ZM57.9766 91.0859C58.7839 91.0859 59.4167 90.8646 59.875 90.4219C60.3385 89.9792 60.5703 89.3594 60.5703 88.5625V87.7891L59.2734 87.8438C58.2422 87.8802 57.4974 88.0417 57.0391 88.3281C56.5859 88.6094 56.3594 89.0495 56.3594 89.6484C56.3594 90.1172 56.5 90.474 56.7812 90.7188C57.0677 90.9635 57.4661 91.0859 57.9766 91.0859ZM68.4531 83.2812C68.8333 83.2812 69.1745 83.3125 69.4766 83.375L69.2969 84.5781C68.9427 84.5 68.6302 84.4609 68.3594 84.4609C67.6667 84.4609 67.0729 84.7422 66.5781 85.3047C66.0885 85.8672 65.8438 86.5677 65.8438 87.4062V92H64.5469V83.4375H65.6172L65.7656 85.0234H65.8281C66.1458 84.4661 66.5286 84.0365 66.9766 83.7344C67.4245 83.4323 67.9167 83.2812 68.4531 83.2812Z" fill="white"/>
<path d="M8.8125 115.906C8.8125 117.062 8.41667 117.953 7.625 118.578C6.83854 119.198 5.71094 119.508 4.24219 119.508H2.89844V124H1.57031V112.578H4.53125C7.38542 112.578 8.8125 113.688 8.8125 115.906ZM2.89844 118.367H4.09375C5.27083 118.367 6.1224 118.177 6.64844 117.797C7.17448 117.417 7.4375 116.807 7.4375 115.969C7.4375 115.214 7.1901 114.651 6.69531 114.281C6.20052 113.911 5.42969 113.727 4.38281 113.727H2.89844V118.367ZM18.4062 119.711C18.4062 121.107 18.0547 122.198 17.3516 122.984C16.6484 123.766 15.6771 124.156 14.4375 124.156C13.6719 124.156 12.9922 123.977 12.3984 123.617C11.8047 123.258 11.3464 122.742 11.0234 122.07C10.7005 121.398 10.5391 120.612 10.5391 119.711C10.5391 118.315 10.888 117.229 11.5859 116.453C12.2839 115.672 13.2526 115.281 14.4922 115.281C15.6901 115.281 16.6406 115.68 17.3438 116.477C18.0521 117.273 18.4062 118.352 18.4062 119.711ZM11.8828 119.711C11.8828 120.805 12.1016 121.638 12.5391 122.211C12.9766 122.784 13.6198 123.07 14.4688 123.07C15.3177 123.07 15.9609 122.786 16.3984 122.219C16.8411 121.646 17.0625 120.81 17.0625 119.711C17.0625 118.622 16.8411 117.797 16.3984 117.234C15.9609 116.667 15.3125 116.383 14.4531 116.383C13.6042 116.383 12.9635 116.661 12.5312 117.219C12.099 117.776 11.8828 118.607 11.8828 119.711ZM24.5938 115.281C24.974 115.281 25.3151 115.312 25.6172 115.375L25.4375 116.578C25.0833 116.5 24.7708 116.461 24.5 116.461C23.8073 116.461 23.2135 116.742 22.7188 117.305C22.2292 117.867 21.9844 118.568 21.9844 119.406V124H20.6875V115.438H21.7578L21.9062 117.023H21.9688C22.2865 116.466 22.6693 116.036 23.1172 115.734C23.5651 115.432 24.0573 115.281 24.5938 115.281ZM29.9844 123.086C30.2135 123.086 30.4349 123.07 30.6484 123.039C30.862 123.003 31.0312 122.966 31.1562 122.93V123.922C31.0156 123.99 30.8073 124.044 30.5312 124.086C30.2604 124.133 30.0156 124.156 29.7969 124.156C28.1406 124.156 27.3125 123.284 27.3125 121.539V116.445H26.0859V115.82L27.3125 115.281L27.8594 113.453H28.6094V115.438H31.0938V116.445H28.6094V121.484C28.6094 122 28.7318 122.396 28.9766 122.672C29.2214 122.948 29.5573 123.086 29.9844 123.086ZM36.7344 116.445H34.5547V124H33.2578V116.445H31.7266V115.859L33.2578 115.391V114.914C33.2578 112.81 34.1771 111.758 36.0156 111.758C36.4688 111.758 37 111.849 37.6094 112.031L37.2734 113.07C36.7734 112.909 36.3464 112.828 35.9922 112.828C35.5026 112.828 35.1406 112.992 34.9062 113.32C34.6719 113.643 34.5547 114.164 34.5547 114.883V115.438H36.7344V116.445ZM45.6875 119.711C45.6875 121.107 45.3359 122.198 44.6328 122.984C43.9297 123.766 42.9583 124.156 41.7188 124.156C40.9531 124.156 40.2734 123.977 39.6797 123.617C39.0859 123.258 38.6276 122.742 38.3047 122.07C37.9818 121.398 37.8203 120.612 37.8203 119.711C37.8203 118.315 38.1693 117.229 38.8672 116.453C39.5651 115.672 40.5339 115.281 41.7734 115.281C42.9714 115.281 43.9219 115.68 44.625 116.477C45.3333 117.273 45.6875 118.352 45.6875 119.711ZM39.1641 119.711C39.1641 120.805 39.3828 121.638 39.8203 122.211C40.2578 122.784 40.901 123.07 41.75 123.07C42.599 123.07 43.2422 122.786 43.6797 122.219C44.1224 121.646 44.3438 120.81 44.3438 119.711C44.3438 118.622 44.1224 117.797 43.6797 117.234C43.2422 116.667 42.5938 116.383 41.7344 116.383C40.8854 116.383 40.2448 116.661 39.8125 117.219C39.3802 117.776 39.1641 118.607 39.1641 119.711ZM49.2656 124H47.9688V111.844H49.2656V124ZM53.3125 124H52.0156V115.438H53.3125V124ZM51.9062 113.117C51.9062 112.82 51.9792 112.604 52.125 112.469C52.2708 112.328 52.4531 112.258 52.6719 112.258C52.8802 112.258 53.0599 112.328 53.2109 112.469C53.362 112.609 53.4375 112.826 53.4375 113.117C53.4375 113.409 53.362 113.628 53.2109 113.773C53.0599 113.914 52.8802 113.984 52.6719 113.984C52.4531 113.984 52.2708 113.914 52.125 113.773C51.9792 113.628 51.9062 113.409 51.9062 113.117ZM63.4531 119.711C63.4531 121.107 63.1016 122.198 62.3984 122.984C61.6953 123.766 60.724 124.156 59.4844 124.156C58.7188 124.156 58.0391 123.977 57.4453 123.617C56.8516 123.258 56.3932 122.742 56.0703 122.07C55.7474 121.398 55.5859 120.612 55.5859 119.711C55.5859 118.315 55.9349 117.229 56.6328 116.453C57.3307 115.672 58.2995 115.281 59.5391 115.281C60.737 115.281 61.6875 115.68 62.3906 116.477C63.099 117.273 63.4531 118.352 63.4531 119.711ZM56.9297 119.711C56.9297 120.805 57.1484 121.638 57.5859 122.211C58.0234 122.784 58.6667 123.07 59.5156 123.07C60.3646 123.07 61.0078 122.786 61.4453 122.219C61.888 121.646 62.1094 120.81 62.1094 119.711C62.1094 118.622 61.888 117.797 61.4453 117.234C61.0078 116.667 60.3594 116.383 59.5 116.383C58.651 116.383 58.0104 116.661 57.5781 117.219C57.1458 117.776 56.9297 118.607 56.9297 119.711Z" fill="white"/>
<path d="M-0.09375 159.008C-0.583333 159.008 -0.96875 158.938 -1.25 158.797V157.664C-0.880208 157.768 -0.494792 157.82 -0.09375 157.82C0.421875 157.82 0.8125 157.664 1.07812 157.352C1.34896 157.039 1.48438 156.589 1.48438 156V144.578H2.8125V155.891C2.8125 156.88 2.5625 157.646 2.0625 158.188C1.5625 158.734 0.84375 159.008 -0.09375 159.008ZM10.9219 156L10.6641 154.781H10.6016C10.1745 155.318 9.7474 155.682 9.32031 155.875C8.89844 156.062 8.36979 156.156 7.73438 156.156C6.88542 156.156 6.21875 155.938 5.73438 155.5C5.25521 155.062 5.01562 154.44 5.01562 153.633C5.01562 151.904 6.39844 150.997 9.16406 150.914L10.6172 150.867V150.336C10.6172 149.664 10.4714 149.169 10.1797 148.852C9.89323 148.529 9.43229 148.367 8.79688 148.367C8.08333 148.367 7.27604 148.586 6.375 149.023L5.97656 148.031C6.39844 147.802 6.85938 147.622 7.35938 147.492C7.86458 147.362 8.36979 147.297 8.875 147.297C9.89583 147.297 10.651 147.523 11.1406 147.977C11.6354 148.43 11.8828 149.156 11.8828 150.156V156H10.9219ZM7.99219 155.086C8.79948 155.086 9.43229 154.865 9.89062 154.422C10.3542 153.979 10.5859 153.359 10.5859 152.562V151.789L9.28906 151.844C8.25781 151.88 7.51302 152.042 7.05469 152.328C6.60156 152.609 6.375 153.049 6.375 153.648C6.375 154.117 6.51562 154.474 6.79688 154.719C7.08333 154.964 7.48177 155.086 7.99219 155.086ZM25.4766 156V150.43C25.4766 149.747 25.3307 149.237 25.0391 148.898C24.7474 148.555 24.2943 148.383 23.6797 148.383C22.8724 148.383 22.276 148.615 21.8906 149.078C21.5052 149.542 21.3125 150.255 21.3125 151.219V156H20.0156V150.43C20.0156 149.747 19.8698 149.237 19.5781 148.898C19.2865 148.555 18.8307 148.383 18.2109 148.383C17.3984 148.383 16.8021 148.628 16.4219 149.117C16.0469 149.602 15.8594 150.398 15.8594 151.508V156H14.5625V147.438H15.6172L15.8281 148.609H15.8906C16.1354 148.193 16.4792 147.867 16.9219 147.633C17.3698 147.398 17.8698 147.281 18.4219 147.281C19.7604 147.281 20.6354 147.766 21.0469 148.734H21.1094C21.3646 148.286 21.7344 147.932 22.2188 147.672C22.7031 147.411 23.2552 147.281 23.875 147.281C24.8438 147.281 25.5677 147.531 26.0469 148.031C26.5312 148.526 26.7734 149.32 26.7734 150.414V156H25.4766ZM36.8438 151.711C36.8438 153.107 36.4922 154.198 35.7891 154.984C35.0859 155.766 34.1146 156.156 32.875 156.156C32.1094 156.156 31.4297 155.977 30.8359 155.617C30.2422 155.258 29.7839 154.742 29.4609 154.07C29.138 153.398 28.9766 152.612 28.9766 151.711C28.9766 150.315 29.3255 149.229 30.0234 148.453C30.7214 147.672 31.6901 147.281 32.9297 147.281C34.1276 147.281 35.0781 147.68 35.7812 148.477C36.4896 149.273 36.8438 150.352 36.8438 151.711ZM30.3203 151.711C30.3203 152.805 30.5391 153.638 30.9766 154.211C31.4141 154.784 32.0573 155.07 32.9062 155.07C33.7552 155.07 34.3984 154.786 34.8359 154.219C35.2786 153.646 35.5 152.81 35.5 151.711C35.5 150.622 35.2786 149.797 34.8359 149.234C34.3984 148.667 33.75 148.383 32.8906 148.383C32.0417 148.383 31.401 148.661 30.9688 149.219C30.5365 149.776 30.3203 150.607 30.3203 151.711ZM44.3906 156L44.1328 154.781H44.0703C43.6432 155.318 43.2161 155.682 42.7891 155.875C42.3672 156.062 41.8385 156.156 41.2031 156.156C40.3542 156.156 39.6875 155.938 39.2031 155.5C38.724 155.062 38.4844 154.44 38.4844 153.633C38.4844 151.904 39.8672 150.997 42.6328 150.914L44.0859 150.867V150.336C44.0859 149.664 43.9401 149.169 43.6484 148.852C43.362 148.529 42.901 148.367 42.2656 148.367C41.5521 148.367 40.7448 148.586 39.8438 149.023L39.4453 148.031C39.8672 147.802 40.3281 147.622 40.8281 147.492C41.3333 147.362 41.8385 147.297 42.3438 147.297C43.3646 147.297 44.1198 147.523 44.6094 147.977C45.1042 148.43 45.3516 149.156 45.3516 150.156V156H44.3906ZM41.4609 155.086C42.2682 155.086 42.901 154.865 43.3594 154.422C43.8229 153.979 44.0547 153.359 44.0547 152.562V151.789L42.7578 151.844C41.7266 151.88 40.9818 152.042 40.5234 152.328C40.0703 152.609 39.8438 153.049 39.8438 153.648C39.8438 154.117 39.9844 154.474 40.2656 154.719C40.5521 154.964 40.9505 155.086 41.4609 155.086Z" fill="white"/>
<path d="M1.57031 176.578H4.79688C6.3125 176.578 7.40885 176.805 8.08594 177.258C8.76302 177.711 9.10156 178.427 9.10156 179.406C9.10156 180.083 8.91146 180.643 8.53125 181.086C8.15625 181.523 7.60677 181.807 6.88281 181.938V182.016C8.61719 182.312 9.48438 183.224 9.48438 184.75C9.48438 185.771 9.13802 186.568 8.44531 187.141C7.75781 187.714 6.79427 188 5.55469 188H1.57031V176.578ZM2.89844 181.469H5.08594C6.02344 181.469 6.69792 181.323 7.10938 181.031C7.52083 180.734 7.72656 180.237 7.72656 179.539C7.72656 178.898 7.4974 178.438 7.03906 178.156C6.58073 177.87 5.85156 177.727 4.85156 177.727H2.89844V181.469ZM2.89844 182.594V186.867H5.28125C6.20312 186.867 6.89583 186.69 7.35938 186.336C7.82812 185.977 8.0625 185.417 8.0625 184.656C8.0625 183.948 7.82292 183.427 7.34375 183.094C6.86979 182.76 6.14583 182.594 5.17188 182.594H2.89844ZM13.0469 188H11.75V175.844H13.0469V188ZM23.1875 183.711C23.1875 185.107 22.8359 186.198 22.1328 186.984C21.4297 187.766 20.4583 188.156 19.2188 188.156C18.4531 188.156 17.7734 187.977 17.1797 187.617C16.5859 187.258 16.1276 186.742 15.8047 186.07C15.4818 185.398 15.3203 184.612 15.3203 183.711C15.3203 182.315 15.6693 181.229 16.3672 180.453C17.0651 179.672 18.0339 179.281 19.2734 179.281C20.4714 179.281 21.4219 179.68 22.125 180.477C22.8333 181.273 23.1875 182.352 23.1875 183.711ZM16.6641 183.711C16.6641 184.805 16.8828 185.638 17.3203 186.211C17.7578 186.784 18.401 187.07 19.25 187.07C20.099 187.07 20.7422 186.786 21.1797 186.219C21.6224 185.646 21.8438 184.81 21.8438 183.711C21.8438 182.622 21.6224 181.797 21.1797 181.234C20.7422 180.667 20.0938 180.383 19.2344 180.383C18.3854 180.383 17.7448 180.661 17.3125 181.219C16.8802 181.776 16.6641 182.607 16.6641 183.711ZM32.4766 179.438V180.258L30.8906 180.445C31.0365 180.628 31.1667 180.867 31.2812 181.164C31.3958 181.456 31.4531 181.786 31.4531 182.156C31.4531 182.995 31.1667 183.664 30.5938 184.164C30.0208 184.664 29.2344 184.914 28.2344 184.914C27.9792 184.914 27.7396 184.893 27.5156 184.852C26.9635 185.143 26.6875 185.51 26.6875 185.953C26.6875 186.188 26.7839 186.362 26.9766 186.477C27.1693 186.586 27.5 186.641 27.9688 186.641H29.4844C30.4115 186.641 31.1224 186.836 31.6172 187.227C32.1172 187.617 32.3672 188.185 32.3672 188.93C32.3672 189.878 31.987 190.599 31.2266 191.094C30.4661 191.594 29.3568 191.844 27.8984 191.844C26.7786 191.844 25.9141 191.635 25.3047 191.219C24.7005 190.802 24.3984 190.214 24.3984 189.453C24.3984 188.932 24.5651 188.482 24.8984 188.102C25.2318 187.721 25.7005 187.464 26.3047 187.328C26.0859 187.229 25.901 187.076 25.75 186.867C25.6042 186.659 25.5312 186.417 25.5312 186.141C25.5312 185.828 25.6146 185.555 25.7812 185.32C25.9479 185.086 26.2109 184.859 26.5703 184.641C26.1276 184.458 25.7656 184.148 25.4844 183.711C25.2083 183.273 25.0703 182.773 25.0703 182.211C25.0703 181.273 25.3516 180.552 25.9141 180.047C26.4766 179.536 27.2734 179.281 28.3047 179.281C28.7526 179.281 29.1562 179.333 29.5156 179.438H32.4766ZM25.6484 189.438C25.6484 189.901 25.8438 190.253 26.2344 190.492C26.625 190.732 27.1849 190.852 27.9141 190.852C29.0026 190.852 29.8073 190.688 30.3281 190.359C30.8542 190.036 31.1172 189.596 31.1172 189.039C31.1172 188.576 30.974 188.253 30.6875 188.07C30.401 187.893 29.862 187.805 29.0703 187.805H27.5156C26.9271 187.805 26.4688 187.945 26.1406 188.227C25.8125 188.508 25.6484 188.911 25.6484 189.438ZM26.3516 182.18C26.3516 182.779 26.5208 183.232 26.8594 183.539C27.1979 183.846 27.6693 184 28.2734 184C29.5391 184 30.1719 183.385 30.1719 182.156C30.1719 180.87 29.5312 180.227 28.25 180.227C27.6406 180.227 27.1719 180.391 26.8438 180.719C26.5156 181.047 26.3516 181.534 26.3516 182.18Z" fill="white"/>
<path d="M9.82031 220H8.25781L4.09375 214.461L2.89844 215.523V220H1.57031V208.578H2.89844V214.242L8.07812 208.578H9.64844L5.05469 213.539L9.82031 220ZM18.5938 215.711C18.5938 217.107 18.2422 218.198 17.5391 218.984C16.8359 219.766 15.8646 220.156 14.625 220.156C13.8594 220.156 13.1797 219.977 12.5859 219.617C11.9922 219.258 11.5339 218.742 11.2109 218.07C10.888 217.398 10.7266 216.612 10.7266 215.711C10.7266 214.315 11.0755 213.229 11.7734 212.453C12.4714 211.672 13.4401 211.281 14.6797 211.281C15.8776 211.281 16.8281 211.68 17.5312 212.477C18.2396 213.273 18.5938 214.352 18.5938 215.711ZM12.0703 215.711C12.0703 216.805 12.2891 217.638 12.7266 218.211C13.1641 218.784 13.8073 219.07 14.6562 219.07C15.5052 219.07 16.1484 218.786 16.5859 218.219C17.0286 217.646 17.25 216.81 17.25 215.711C17.25 214.622 17.0286 213.797 16.5859 213.234C16.1484 212.667 15.5 212.383 14.6406 212.383C13.7917 212.383 13.151 212.661 12.7188 213.219C12.2865 213.776 12.0703 214.607 12.0703 215.711ZM26.7344 220V214.461C26.7344 213.763 26.5755 213.242 26.2578 212.898C25.9401 212.555 25.4427 212.383 24.7656 212.383C23.8698 212.383 23.2135 212.625 22.7969 213.109C22.3802 213.594 22.1719 214.393 22.1719 215.508V220H20.875V211.438H21.9297L22.1406 212.609H22.2031C22.4688 212.188 22.8411 211.862 23.3203 211.633C23.7995 211.398 24.3333 211.281 24.9219 211.281C25.9531 211.281 26.7292 211.531 27.25 212.031C27.7708 212.526 28.0312 213.32 28.0312 214.414V220H26.7344ZM33.4688 219.086C33.6979 219.086 33.9193 219.07 34.1328 219.039C34.3464 219.003 34.5156 218.966 34.6406 218.93V219.922C34.5 219.99 34.2917 220.044 34.0156 220.086C33.7448 220.133 33.5 220.156 33.2812 220.156C31.625 220.156 30.7969 219.284 30.7969 217.539V212.445H29.5703V211.82L30.7969 211.281L31.3438 209.453H32.0938V211.438H34.5781V212.445H32.0938V217.484C32.0938 218 32.2161 218.396 32.4609 218.672C32.7057 218.948 33.0417 219.086 33.4688 219.086ZM41.625 220L41.3672 218.781H41.3047C40.8776 219.318 40.4505 219.682 40.0234 219.875C39.6016 220.062 39.0729 220.156 38.4375 220.156C37.5885 220.156 36.9219 219.938 36.4375 219.5C35.9583 219.062 35.7188 218.44 35.7188 217.633C35.7188 215.904 37.1016 214.997 39.8672 214.914L41.3203 214.867V214.336C41.3203 213.664 41.1745 213.169 40.8828 212.852C40.5964 212.529 40.1354 212.367 39.5 212.367C38.7865 212.367 37.9792 212.586 37.0781 213.023L36.6797 212.031C37.1016 211.802 37.5625 211.622 38.0625 211.492C38.5677 211.362 39.0729 211.297 39.5781 211.297C40.599 211.297 41.3542 211.523 41.8438 211.977C42.3385 212.43 42.5859 213.156 42.5859 214.156V220H41.625ZM38.6953 219.086C39.5026 219.086 40.1354 218.865 40.5938 218.422C41.0573 217.979 41.2891 217.359 41.2891 216.562V215.789L39.9922 215.844C38.9609 215.88 38.2161 216.042 37.7578 216.328C37.3047 216.609 37.0781 217.049 37.0781 217.648C37.0781 218.117 37.2188 218.474 37.5 218.719C37.7865 218.964 38.1849 219.086 38.6953 219.086ZM46.5469 215.617C46.7708 215.299 47.112 214.883 47.5703 214.367L50.3359 211.438H51.875L48.4062 215.086L52.1172 220H50.5469L47.5234 215.953L46.5469 216.797V220H45.2656V207.844H46.5469V214.289C46.5469 214.576 46.526 215.018 46.4844 215.617H46.5469ZM56.4375 219.086C56.6667 219.086 56.888 219.07 57.1016 219.039C57.3151 219.003 57.4844 218.966 57.6094 218.93V219.922C57.4688 219.99 57.2604 220.044 56.9844 220.086C56.7135 220.133 56.4688 220.156 56.25 220.156C54.5938 220.156 53.7656 219.284 53.7656 217.539V212.445H52.5391V211.82L53.7656 211.281L54.3125 209.453H55.0625V211.438H57.5469V212.445H55.0625V217.484C55.0625 218 55.1849 218.396 55.4297 218.672C55.6745 218.948 56.0104 219.086 56.4375 219.086ZM60.625 220H59.3281V207.844H60.625V220ZM68.6406 220L68.3828 218.781H68.3203C67.8932 219.318 67.4661 219.682 67.0391 219.875C66.6172 220.062 66.0885 220.156 65.4531 220.156C64.6042 220.156 63.9375 219.938 63.4531 219.5C62.974 219.062 62.7344 218.44 62.7344 217.633C62.7344 215.904 64.1172 214.997 66.8828 214.914L68.3359 214.867V214.336C68.3359 213.664 68.1901 213.169 67.8984 212.852C67.612 212.529 67.151 212.367 66.5156 212.367C65.8021 212.367 64.9948 212.586 64.0938 213.023L63.6953 212.031C64.1172 211.802 64.5781 211.622 65.0781 211.492C65.5833 211.362 66.0885 211.297 66.5938 211.297C67.6146 211.297 68.3698 211.523 68.8594 211.977C69.3542 212.43 69.6016 213.156 69.6016 214.156V220H68.6406ZM65.7109 219.086C66.5182 219.086 67.151 218.865 67.6094 218.422C68.0729 217.979 68.3047 217.359 68.3047 216.562V215.789L67.0078 215.844C65.9766 215.88 65.2318 216.042 64.7734 216.328C64.3203 216.609 64.0938 217.049 64.0938 217.648C64.0938 218.117 64.2344 218.474 64.5156 218.719C64.8021 218.964 65.2005 219.086 65.7109 219.086ZM76.1875 211.281C76.5677 211.281 76.9089 211.312 77.2109 211.375L77.0312 212.578C76.6771 212.5 76.3646 212.461 76.0938 212.461C75.401 212.461 74.8073 212.742 74.3125 213.305C73.8229 213.867 73.5781 214.568 73.5781 215.406V220H72.2812V211.438H73.3516L73.5 213.023H73.5625C73.8802 212.466 74.263 212.036 74.7109 211.734C75.1589 211.432 75.651 211.281 76.1875 211.281Z" fill="white"/>
</g>
</g>
<defs>
<clipPath id="clip0_14_1979">
<rect width="143" height="226" fill="white"/>
</clipPath>
<clipPath id="clip1_14_1979">
<rect width="87" height="184" fill="white" transform="translate(0 42)"/>
</clipPath>
</defs>
</svg>
