<svg width="142" height="130" viewBox="0 0 142 130" fill="none" xmlns="http://www.w3.org/2000/svg">
<g clip-path="url(#clip0_14_1988)">
<path d="M1.79688 6.72266H6.24023C8.26497 6.72266 9.73307 7.01237 10.6445 7.5918C11.5625 8.16471 12.0215 9.07943 12.0215 10.3359C12.0215 11.1888 11.8197 11.8887 11.416 12.4355C11.0189 12.9824 10.4883 13.3112 9.82422 13.4219V13.5195C10.7292 13.7214 11.3802 14.099 11.7773 14.6523C12.181 15.2057 12.3828 15.9414 12.3828 16.8594C12.3828 18.1615 11.9108 19.1771 10.9668 19.9062C10.0293 20.6354 8.75326 21 7.13867 21H1.79688V6.72266ZM4.82422 12.377H6.58203C7.40234 12.377 7.99479 12.25 8.35938 11.9961C8.73047 11.7422 8.91602 11.3223 8.91602 10.7363C8.91602 10.1895 8.71419 9.79883 8.31055 9.56445C7.91341 9.32357 7.2819 9.20312 6.41602 9.20312H4.82422V12.377ZM4.82422 14.7793V18.5H6.79688C7.63021 18.5 8.24544 18.3405 8.64258 18.0215C9.03971 17.7025 9.23828 17.2142 9.23828 16.5566C9.23828 15.3717 8.39193 14.7793 6.69922 14.7793H4.82422ZM14.873 7.25977C14.873 6.28971 15.4134 5.80469 16.4941 5.80469C17.5749 5.80469 18.1152 6.28971 18.1152 7.25977C18.1152 7.72201 17.9785 8.08333 17.7051 8.34375C17.4382 8.59766 17.0345 8.72461 16.4941 8.72461C15.4134 8.72461 14.873 8.23633 14.873 7.25977ZM17.9785 21H15V10.082H17.9785V21ZM28.7109 21H20.0879V19.2422L25.1465 12.3574H20.3906V10.082H28.5352V12.0156L23.6133 18.7246H28.7109V21ZM35.9473 7.25977C35.9473 6.28971 36.4876 5.80469 37.5684 5.80469C38.6491 5.80469 39.1895 6.28971 39.1895 7.25977C39.1895 7.72201 39.0527 8.08333 38.7793 8.34375C38.5124 8.59766 38.1087 8.72461 37.5684 8.72461C36.4876 8.72461 35.9473 8.23633 35.9473 7.25977ZM39.0527 21H36.0742V10.082H39.0527V21ZM52.2656 21H49.2871V14.623C49.2871 13.8353 49.1471 13.2461 48.8672 12.8555C48.5872 12.4583 48.1413 12.2598 47.5293 12.2598C46.696 12.2598 46.0938 12.5397 45.7227 13.0996C45.3516 13.653 45.166 14.5742 45.166 15.8633V21H42.1875V10.082H44.4629L44.8633 11.4785H45.0293C45.3613 10.9512 45.8171 10.554 46.3965 10.2871C46.9824 10.0137 47.6465 9.87695 48.3887 9.87695C49.6582 9.87695 50.6217 10.222 51.2793 10.9121C51.9368 11.5957 52.2656 12.5853 52.2656 13.8809V21ZM59.9316 18.8223C60.4525 18.8223 61.0775 18.7083 61.8066 18.4805V20.6973C61.0645 21.0293 60.153 21.1953 59.0723 21.1953C57.8809 21.1953 57.0117 20.8958 56.4648 20.2969C55.9245 19.6914 55.6543 18.7865 55.6543 17.582V12.3184H54.2285V11.0586L55.8691 10.0625L56.7285 7.75781H58.6328V10.082H61.6895V12.3184H58.6328V17.582C58.6328 18.0052 58.75 18.3177 58.9844 18.5195C59.2253 18.7214 59.541 18.8223 59.9316 18.8223ZM68.5449 11.9961C67.9134 11.9961 67.4186 12.1979 67.0605 12.6016C66.7025 12.9987 66.4974 13.5651 66.4453 14.3008H70.625C70.612 13.5651 70.4199 12.9987 70.0488 12.6016C69.6777 12.1979 69.1764 11.9961 68.5449 11.9961ZM68.9648 21.1953C67.207 21.1953 65.8333 20.7103 64.8438 19.7402C63.8542 18.7702 63.3594 17.3965 63.3594 15.6191C63.3594 13.7897 63.8151 12.377 64.7266 11.3809C65.6445 10.3783 66.9108 9.87695 68.5254 9.87695C70.0684 9.87695 71.2695 10.3164 72.1289 11.1953C72.9883 12.0742 73.418 13.2884 73.418 14.8379V16.2832H66.377C66.4095 17.1296 66.6602 17.7904 67.1289 18.2656C67.5977 18.7409 68.2552 18.9785 69.1016 18.9785C69.7591 18.9785 70.3809 18.9102 70.9668 18.7734C71.5527 18.6367 72.1647 18.4186 72.8027 18.1191V20.4238C72.2819 20.6842 71.7253 20.8763 71.1328 21C70.5404 21.1302 69.8177 21.1953 68.9648 21.1953ZM81.9336 9.87695C82.3372 9.87695 82.6725 9.90625 82.9395 9.96484L82.7148 12.7578C82.474 12.6927 82.181 12.6602 81.8359 12.6602C80.8854 12.6602 80.1432 12.9043 79.6094 13.3926C79.082 13.8809 78.8184 14.5645 78.8184 15.4434V21H75.8398V10.082H78.0957L78.5352 11.918H78.6816C79.0202 11.306 79.4759 10.8145 80.0488 10.4434C80.6283 10.0658 81.2565 9.87695 81.9336 9.87695ZM95 21H92.0215V14.623C92.0215 13.8353 91.8815 13.2461 91.6016 12.8555C91.3216 12.4583 90.8757 12.2598 90.2637 12.2598C89.4303 12.2598 88.8281 12.5397 88.457 13.0996C88.0859 13.653 87.9004 14.5742 87.9004 15.8633V21H84.9219V10.082H87.1973L87.5977 11.4785H87.7637C88.0957 10.9512 88.5514 10.554 89.1309 10.2871C89.7168 10.0137 90.3809 9.87695 91.123 9.87695C92.3926 9.87695 93.3561 10.222 94.0137 10.9121C94.6712 11.5957 95 12.5853 95 13.8809V21ZM102.588 11.9961C101.956 11.9961 101.462 12.1979 101.104 12.6016C100.745 12.9987 100.54 13.5651 100.488 14.3008H104.668C104.655 13.5651 104.463 12.9987 104.092 12.6016C103.721 12.1979 103.219 11.9961 102.588 11.9961ZM103.008 21.1953C101.25 21.1953 99.8763 20.7103 98.8867 19.7402C97.8971 18.7702 97.4023 17.3965 97.4023 15.6191C97.4023 13.7897 97.8581 12.377 98.7695 11.3809C99.6875 10.3783 100.954 9.87695 102.568 9.87695C104.111 9.87695 105.312 10.3164 106.172 11.1953C107.031 12.0742 107.461 13.2884 107.461 14.8379V16.2832H100.42C100.452 17.1296 100.703 17.7904 101.172 18.2656C101.641 18.7409 102.298 18.9785 103.145 18.9785C103.802 18.9785 104.424 18.9102 105.01 18.7734C105.596 18.6367 106.208 18.4186 106.846 18.1191V20.4238C106.325 20.6842 105.768 20.8763 105.176 21C104.583 21.1302 103.861 21.1953 103.008 21.1953ZM114.482 18.8223C115.003 18.8223 115.628 18.7083 116.357 18.4805V20.6973C115.615 21.0293 114.704 21.1953 113.623 21.1953C112.432 21.1953 111.562 20.8958 111.016 20.2969C110.475 19.6914 110.205 18.7865 110.205 17.582V12.3184H108.779V11.0586L110.42 10.0625L111.279 7.75781H113.184V10.082H116.24V12.3184H113.184V17.582C113.184 18.0052 113.301 18.3177 113.535 18.5195C113.776 18.7214 114.092 18.8223 114.482 18.8223ZM122.031 21.1953C120.749 21.1953 119.74 20.6973 119.004 19.7012C118.275 18.7051 117.91 17.3249 117.91 15.5605C117.91 13.7702 118.281 12.377 119.023 11.3809C119.772 10.3783 120.801 9.87695 122.109 9.87695C123.483 9.87695 124.531 10.4108 125.254 11.4785H125.352C125.202 10.6647 125.127 9.9388 125.127 9.30078V5.80469H128.115V21H125.83L125.254 19.584H125.127C124.45 20.6582 123.418 21.1953 122.031 21.1953ZM123.076 18.8223C123.838 18.8223 124.395 18.6009 124.746 18.1582C125.104 17.7155 125.299 16.9635 125.332 15.9023V15.5801C125.332 14.4082 125.15 13.5684 124.785 13.0605C124.427 12.5527 123.841 12.2988 123.027 12.2988C122.363 12.2988 121.846 12.582 121.475 13.1484C121.11 13.7083 120.928 14.5254 120.928 15.5996C120.928 16.6738 121.113 17.4811 121.484 18.0215C121.855 18.5553 122.386 18.8223 123.076 18.8223ZM138.164 21L137.588 19.5156H137.51C137.008 20.1471 136.491 20.5866 135.957 20.834C135.43 21.0749 134.74 21.1953 133.887 21.1953C132.839 21.1953 132.012 20.8958 131.406 20.2969C130.807 19.6979 130.508 18.8451 130.508 17.7383C130.508 16.5794 130.911 15.7266 131.719 15.1797C132.533 14.6263 133.757 14.3203 135.391 14.2617L137.285 14.2031V13.7246C137.285 12.6178 136.719 12.0645 135.586 12.0645C134.714 12.0645 133.688 12.3281 132.51 12.8555L131.523 10.8438C132.78 10.1862 134.173 9.85742 135.703 9.85742C137.168 9.85742 138.291 10.1764 139.072 10.8145C139.854 11.4525 140.244 12.4225 140.244 13.7246V21H138.164ZM137.285 15.9414L136.133 15.9805C135.267 16.0065 134.622 16.1628 134.199 16.4492C133.776 16.7357 133.564 17.1719 133.564 17.7578C133.564 18.5977 134.046 19.0176 135.01 19.0176C135.7 19.0176 136.25 18.819 136.66 18.4219C137.077 18.0247 137.285 17.4974 137.285 16.8398V15.9414Z" fill="white"/>
<g clip-path="url(#clip1_14_1988)">
<g clip-path="url(#clip2_14_1988)">
<g clip-path="url(#clip3_14_1988)">
<path d="M11 42.375C4.92339 42.375 0 47.5781 0 54C0 60.4219 4.92339 65.625 11 65.625C17.0766 65.625 22 60.4219 22 54C22 47.5781 17.0766 42.375 11 42.375ZM16.4024 50.3391L14.5972 59.3297C14.4641 59.9672 14.1048 60.1219 13.6036 59.8219L10.8536 57.6797L9.52742 59.0297C9.38105 59.1844 9.25686 59.3156 8.97298 59.3156L9.16815 56.3578L14.2645 51.4922C14.4863 51.2859 14.2157 51.1687 13.923 51.375L7.6246 55.5656L4.91008 54.6703C4.32016 54.4734 4.30685 54.0469 5.03427 53.7469L15.6395 49.425C16.1319 49.2375 16.5621 49.5516 16.4024 50.3391Z" fill="white"/>
</g>
<path d="M35.0859 60H33.7578V49.7578H30.1406V48.5781H38.7031V49.7578H35.0859V60ZM43.8516 60.1562C42.5859 60.1562 41.5859 59.7708 40.8516 59C40.1224 58.2292 39.7578 57.1589 39.7578 55.7891C39.7578 54.4089 40.0964 53.3125 40.7734 52.5C41.4557 51.6875 42.3698 51.2812 43.5156 51.2812C44.5885 51.2812 45.4375 51.6354 46.0625 52.3438C46.6875 53.0469 47 53.9766 47 55.1328V55.9531H41.1016C41.1276 56.9583 41.3802 57.7214 41.8594 58.2422C42.3438 58.763 43.0234 59.0234 43.8984 59.0234C44.8203 59.0234 45.7318 58.8307 46.6328 58.4453V59.6016C46.1745 59.7995 45.7396 59.9401 45.3281 60.0234C44.9219 60.112 44.4297 60.1562 43.8516 60.1562ZM43.5 52.3672C42.8125 52.3672 42.263 52.5911 41.8516 53.0391C41.4453 53.487 41.2057 54.1068 41.1328 54.8984H45.6094C45.6094 54.0807 45.4271 53.4557 45.0625 53.0234C44.6979 52.5859 44.1771 52.3672 43.5 52.3672ZM50.5156 60H49.2188V47.8438H50.5156V60ZM56.8828 60.1562C55.6172 60.1562 54.6172 59.7708 53.8828 59C53.1536 58.2292 52.7891 57.1589 52.7891 55.7891C52.7891 54.4089 53.1276 53.3125 53.8047 52.5C54.487 51.6875 55.401 51.2812 56.5469 51.2812C57.6198 51.2812 58.4688 51.6354 59.0938 52.3438C59.7188 53.0469 60.0312 53.9766 60.0312 55.1328V55.9531H54.1328C54.1589 56.9583 54.4115 57.7214 54.8906 58.2422C55.375 58.763 56.0547 59.0234 56.9297 59.0234C57.8516 59.0234 58.763 58.8307 59.6641 58.4453V59.6016C59.2057 59.7995 58.7708 59.9401 58.3594 60.0234C57.9531 60.112 57.4609 60.1562 56.8828 60.1562ZM56.5312 52.3672C55.8438 52.3672 55.2943 52.5911 54.8828 53.0391C54.4766 53.487 54.237 54.1068 54.1641 54.8984H58.6406C58.6406 54.0807 58.4583 53.4557 58.0938 53.0234C57.7292 52.5859 57.2083 52.3672 56.5312 52.3672ZM69.2578 51.4375V52.2578L67.6719 52.4453C67.8177 52.6276 67.9479 52.8672 68.0625 53.1641C68.1771 53.4557 68.2344 53.7865 68.2344 54.1562C68.2344 54.9948 67.9479 55.6641 67.375 56.1641C66.8021 56.6641 66.0156 56.9141 65.0156 56.9141C64.7604 56.9141 64.5208 56.8932 64.2969 56.8516C63.7448 57.1432 63.4688 57.5104 63.4688 57.9531C63.4688 58.1875 63.5651 58.362 63.7578 58.4766C63.9505 58.5859 64.2812 58.6406 64.75 58.6406H66.2656C67.1927 58.6406 67.9036 58.8359 68.3984 59.2266C68.8984 59.6172 69.1484 60.1849 69.1484 60.9297C69.1484 61.8776 68.7682 62.599 68.0078 63.0938C67.2474 63.5938 66.138 63.8438 64.6797 63.8438C63.5599 63.8438 62.6953 63.6354 62.0859 63.2188C61.4818 62.8021 61.1797 62.2135 61.1797 61.4531C61.1797 60.9323 61.3464 60.4818 61.6797 60.1016C62.013 59.7214 62.4818 59.4635 63.0859 59.3281C62.8672 59.2292 62.6823 59.0755 62.5312 58.8672C62.3854 58.6589 62.3125 58.4167 62.3125 58.1406C62.3125 57.8281 62.3958 57.5547 62.5625 57.3203C62.7292 57.0859 62.9922 56.8594 63.3516 56.6406C62.9089 56.4583 62.5469 56.1484 62.2656 55.7109C61.9896 55.2734 61.8516 54.7734 61.8516 54.2109C61.8516 53.2734 62.1328 52.5521 62.6953 52.0469C63.2578 51.5365 64.0547 51.2812 65.0859 51.2812C65.5339 51.2812 65.9375 51.3333 66.2969 51.4375H69.2578ZM62.4297 61.4375C62.4297 61.901 62.625 62.2526 63.0156 62.4922C63.4062 62.7318 63.9661 62.8516 64.6953 62.8516C65.7839 62.8516 66.5885 62.6875 67.1094 62.3594C67.6354 62.0365 67.8984 61.5964 67.8984 61.0391C67.8984 60.5755 67.7552 60.2526 67.4688 60.0703C67.1823 59.8932 66.6432 59.8047 65.8516 59.8047H64.2969C63.7083 59.8047 63.25 59.9453 62.9219 60.2266C62.5938 60.5078 62.4297 60.9115 62.4297 61.4375ZM63.1328 54.1797C63.1328 54.7786 63.3021 55.2318 63.6406 55.5391C63.9792 55.8464 64.4505 56 65.0547 56C66.3203 56 66.9531 55.3854 66.9531 54.1562C66.9531 52.8698 66.3125 52.2266 65.0312 52.2266C64.4219 52.2266 63.9531 52.3906 63.625 52.7188C63.2969 53.0469 63.1328 53.5339 63.1328 54.1797ZM74.9219 51.2812C75.3021 51.2812 75.6432 51.3125 75.9453 51.375L75.7656 52.5781C75.4115 52.5 75.099 52.4609 74.8281 52.4609C74.1354 52.4609 73.5417 52.7422 73.0469 53.3047C72.5573 53.8672 72.3125 54.5677 72.3125 55.4062V60H71.0156V51.4375H72.0859L72.2344 53.0234H72.2969C72.6146 52.4661 72.9974 52.0365 73.4453 51.7344C73.8932 51.4323 74.3854 51.2812 74.9219 51.2812ZM82.8125 60L82.5547 58.7812H82.4922C82.0651 59.3177 81.638 59.6823 81.2109 59.875C80.7891 60.0625 80.2604 60.1562 79.625 60.1562C78.776 60.1562 78.1094 59.9375 77.625 59.5C77.1458 59.0625 76.9062 58.4401 76.9062 57.6328C76.9062 55.9036 78.2891 54.9974 81.0547 54.9141L82.5078 54.8672V54.3359C82.5078 53.6641 82.362 53.1693 82.0703 52.8516C81.7839 52.5286 81.3229 52.3672 80.6875 52.3672C79.974 52.3672 79.1667 52.5859 78.2656 53.0234L77.8672 52.0312C78.2891 51.8021 78.75 51.6224 79.25 51.4922C79.7552 51.362 80.2604 51.2969 80.7656 51.2969C81.7865 51.2969 82.5417 51.5234 83.0312 51.9766C83.526 52.4297 83.7734 53.1562 83.7734 54.1562V60H82.8125ZM79.8828 59.0859C80.6901 59.0859 81.3229 58.8646 81.7812 58.4219C82.2448 57.9792 82.4766 57.3594 82.4766 56.5625V55.7891L81.1797 55.8438C80.1484 55.8802 79.4036 56.0417 78.9453 56.3281C78.4922 56.6094 78.2656 57.0495 78.2656 57.6484C78.2656 58.1172 78.4062 58.474 78.6875 58.7188C78.974 58.9635 79.3724 59.0859 79.8828 59.0859ZM97.3672 60V54.4297C97.3672 53.7474 97.2214 53.237 96.9297 52.8984C96.638 52.5547 96.1849 52.3828 95.5703 52.3828C94.763 52.3828 94.1667 52.6146 93.7812 53.0781C93.3958 53.5417 93.2031 54.2552 93.2031 55.2188V60H91.9062V54.4297C91.9062 53.7474 91.7604 53.237 91.4688 52.8984C91.1771 52.5547 90.7214 52.3828 90.1016 52.3828C89.2891 52.3828 88.6927 52.6276 88.3125 53.1172C87.9375 53.6016 87.75 54.3984 87.75 55.5078V60H86.4531V51.4375H87.5078L87.7188 52.6094H87.7812C88.026 52.1927 88.3698 51.8672 88.8125 51.6328C89.2604 51.3984 89.7604 51.2812 90.3125 51.2812C91.651 51.2812 92.526 51.7656 92.9375 52.7344H93C93.2552 52.2865 93.625 51.9323 94.1094 51.6719C94.5938 51.4115 95.1458 51.2812 95.7656 51.2812C96.7344 51.2812 97.4583 51.5312 97.9375 52.0312C98.4219 52.526 98.6641 53.3203 98.6641 54.4141V60H97.3672Z" fill="white"/>
</g>
<g clip-path="url(#clip4_14_1988)">
<g clip-path="url(#clip5_14_1988)">
<path d="M21.6562 86C21.6562 79.5781 16.8867 74.375 11 74.375C5.11328 74.375 0.34375 79.5781 0.34375 86C0.34375 91.8022 4.24059 96.6116 9.33496 97.4844V89.3605H6.62793V86H9.33496V83.4388C9.33496 80.5255 10.9248 78.9162 13.3598 78.9162C14.526 78.9162 15.7455 79.1431 15.7455 79.1431V82.0025H14.4014C13.078 82.0025 12.665 82.8988 12.665 83.818V86H15.6204L15.1478 89.3605H12.665V97.4844C17.7594 96.6116 21.6562 91.8022 21.6562 86Z" fill="white"/>
</g>
<path d="M32.8984 92H31.5703V80.5781H37.9375V81.7578H32.8984V85.9375H37.6328V87.1172H32.8984V92ZM44.9062 92L44.6484 90.7812H44.5859C44.1589 91.3177 43.7318 91.6823 43.3047 91.875C42.8828 92.0625 42.3542 92.1562 41.7188 92.1562C40.8698 92.1562 40.2031 91.9375 39.7188 91.5C39.2396 91.0625 39 90.4401 39 89.6328C39 87.9036 40.3828 86.9974 43.1484 86.9141L44.6016 86.8672V86.3359C44.6016 85.6641 44.4557 85.1693 44.1641 84.8516C43.8776 84.5286 43.4167 84.3672 42.7812 84.3672C42.0677 84.3672 41.2604 84.5859 40.3594 85.0234L39.9609 84.0312C40.3828 83.8021 40.8438 83.6224 41.3438 83.4922C41.849 83.362 42.3542 83.2969 42.8594 83.2969C43.8802 83.2969 44.6354 83.5234 45.125 83.9766C45.6198 84.4297 45.8672 85.1562 45.8672 86.1562V92H44.9062ZM41.9766 91.0859C42.7839 91.0859 43.4167 90.8646 43.875 90.4219C44.3385 89.9792 44.5703 89.3594 44.5703 88.5625V87.7891L43.2734 87.8438C42.2422 87.8802 41.4974 88.0417 41.0391 88.3281C40.5859 88.6094 40.3594 89.0495 40.3594 89.6484C40.3594 90.1172 40.5 90.474 40.7812 90.7188C41.0677 90.9635 41.4661 91.0859 41.9766 91.0859ZM51.9688 92.1562C50.7292 92.1562 49.7682 91.776 49.0859 91.0156C48.4089 90.25 48.0703 89.1693 48.0703 87.7734C48.0703 86.3411 48.4141 85.2344 49.1016 84.4531C49.7943 83.6719 50.7786 83.2812 52.0547 83.2812C52.4661 83.2812 52.8776 83.3255 53.2891 83.4141C53.7005 83.5026 54.0234 83.6068 54.2578 83.7266L53.8594 84.8281C53.5729 84.7135 53.2604 84.6198 52.9219 84.5469C52.5833 84.4688 52.2839 84.4297 52.0234 84.4297C50.2839 84.4297 49.4141 85.5391 49.4141 87.7578C49.4141 88.8099 49.625 89.6172 50.0469 90.1797C50.474 90.7422 51.1042 91.0234 51.9375 91.0234C52.651 91.0234 53.3828 90.8698 54.1328 90.5625V91.7109C53.5599 92.0078 52.8385 92.1562 51.9688 92.1562ZM59.7891 92.1562C58.5234 92.1562 57.5234 91.7708 56.7891 91C56.0599 90.2292 55.6953 89.1589 55.6953 87.7891C55.6953 86.4089 56.0339 85.3125 56.7109 84.5C57.3932 83.6875 58.3073 83.2812 59.4531 83.2812C60.526 83.2812 61.375 83.6354 62 84.3438C62.625 85.0469 62.9375 85.9766 62.9375 87.1328V87.9531H57.0391C57.0651 88.9583 57.3177 89.7214 57.7969 90.2422C58.2812 90.763 58.9609 91.0234 59.8359 91.0234C60.7578 91.0234 61.6693 90.8307 62.5703 90.4453V91.6016C62.112 91.7995 61.6771 91.9401 61.2656 92.0234C60.8594 92.112 60.3672 92.1562 59.7891 92.1562ZM59.4375 84.3672C58.75 84.3672 58.2005 84.5911 57.7891 85.0391C57.3828 85.487 57.1432 86.1068 57.0703 86.8984H61.5469C61.5469 86.0807 61.3646 85.4557 61 85.0234C60.6354 84.5859 60.1146 84.3672 59.4375 84.3672ZM69.1406 83.2969C70.2656 83.2969 71.138 83.6823 71.7578 84.4531C72.3828 85.2188 72.6953 86.3047 72.6953 87.7109C72.6953 89.1172 72.3802 90.2109 71.75 90.9922C71.125 91.7682 70.2552 92.1562 69.1406 92.1562C68.5833 92.1562 68.0729 92.0547 67.6094 91.8516C67.151 91.6432 66.7656 91.3255 66.4531 90.8984H66.3594L66.0859 92H65.1562V79.8438H66.4531V82.7969C66.4531 83.4583 66.4323 84.0521 66.3906 84.5781H66.4531C67.0573 83.724 67.9531 83.2969 69.1406 83.2969ZM68.9531 84.3828C68.0677 84.3828 67.4297 84.638 67.0391 85.1484C66.6484 85.6536 66.4531 86.5078 66.4531 87.7109C66.4531 88.9141 66.6536 89.776 67.0547 90.2969C67.4557 90.8125 68.099 91.0703 68.9844 91.0703C69.7812 91.0703 70.375 90.7812 70.7656 90.2031C71.1562 89.6198 71.3516 88.7839 71.3516 87.6953C71.3516 86.5807 71.1562 85.75 70.7656 85.2031C70.375 84.6562 69.7708 84.3828 68.9531 84.3828ZM82.3594 87.7109C82.3594 89.1068 82.0078 90.1979 81.3047 90.9844C80.6016 91.7656 79.6302 92.1562 78.3906 92.1562C77.625 92.1562 76.9453 91.9766 76.3516 91.6172C75.7578 91.2578 75.2995 90.7422 74.9766 90.0703C74.6536 89.3984 74.4922 88.612 74.4922 87.7109C74.4922 86.3151 74.8411 85.2292 75.5391 84.4531C76.237 83.6719 77.2057 83.2812 78.4453 83.2812C79.6432 83.2812 80.5938 83.6797 81.2969 84.4766C82.0052 85.2734 82.3594 86.3516 82.3594 87.7109ZM75.8359 87.7109C75.8359 88.8047 76.0547 89.638 76.4922 90.2109C76.9297 90.7839 77.5729 91.0703 78.4219 91.0703C79.2708 91.0703 79.9141 90.7865 80.3516 90.2188C80.7943 89.6458 81.0156 88.8099 81.0156 87.7109C81.0156 86.6224 80.7943 85.7969 80.3516 85.2344C79.9141 84.6667 79.2656 84.3828 78.4062 84.3828C77.5573 84.3828 76.9167 84.6615 76.4844 85.2188C76.0521 85.776 75.8359 86.6068 75.8359 87.7109ZM92.0312 87.7109C92.0312 89.1068 91.6797 90.1979 90.9766 90.9844C90.2734 91.7656 89.3021 92.1562 88.0625 92.1562C87.2969 92.1562 86.6172 91.9766 86.0234 91.6172C85.4297 91.2578 84.9714 90.7422 84.6484 90.0703C84.3255 89.3984 84.1641 88.612 84.1641 87.7109C84.1641 86.3151 84.513 85.2292 85.2109 84.4531C85.9089 83.6719 86.8776 83.2812 88.1172 83.2812C89.3151 83.2812 90.2656 83.6797 90.9688 84.4766C91.6771 85.2734 92.0312 86.3516 92.0312 87.7109ZM85.5078 87.7109C85.5078 88.8047 85.7266 89.638 86.1641 90.2109C86.6016 90.7839 87.2448 91.0703 88.0938 91.0703C88.9427 91.0703 89.5859 90.7865 90.0234 90.2188C90.4661 89.6458 90.6875 88.8099 90.6875 87.7109C90.6875 86.6224 90.4661 85.7969 90.0234 85.2344C89.5859 84.6667 88.9375 84.3828 88.0781 84.3828C87.2292 84.3828 86.5885 84.6615 86.1562 85.2188C85.724 85.776 85.5078 86.6068 85.5078 87.7109ZM95.5938 87.6172C95.8177 87.2995 96.1589 86.8828 96.6172 86.3672L99.3828 83.4375H100.922L97.4531 87.0859L101.164 92H99.5938L96.5703 87.9531L95.5938 88.7969V92H94.3125V79.8438H95.5938V86.2891C95.5938 86.5755 95.5729 87.0182 95.5312 87.6172H95.5938Z" fill="white"/>
</g>
<g clip-path="url(#clip6_14_1988)">
<g clip-path="url(#clip7_14_1988)">
<path d="M11.0049 112.61C7.88169 112.61 5.36249 115.014 5.36249 117.995C5.36249 120.977 7.88169 123.381 11.0049 123.381C14.1281 123.381 16.6473 120.977 16.6473 117.995C16.6473 115.014 14.1281 112.61 11.0049 112.61ZM11.0049 121.497C8.9866 121.497 7.3366 119.927 7.3366 117.995C7.3366 116.064 8.98169 114.494 11.0049 114.494C13.0281 114.494 14.6732 116.064 14.6732 117.995C14.6732 119.927 13.0232 121.497 11.0049 121.497ZM18.1942 112.389C18.1942 113.088 17.6049 113.645 16.8781 113.645C16.1464 113.645 15.562 113.083 15.562 112.389C15.562 111.695 16.1513 111.133 16.8781 111.133C17.6049 111.133 18.1942 111.695 18.1942 112.389ZM21.9312 113.664C21.8477 111.981 21.4451 110.491 20.1536 109.263C18.8669 108.035 17.3053 107.65 15.5424 107.566C13.7254 107.467 8.27946 107.467 6.46249 107.566C4.70446 107.645 3.14285 108.03 1.85134 109.258C0.559819 110.486 0.162051 111.977 0.0736587 113.66C-0.0294662 115.394 -0.0294662 120.592 0.0736587 122.327C0.157141 124.01 0.559819 125.5 1.85134 126.728C3.14285 127.956 4.69955 128.341 6.46249 128.425C8.27946 128.524 13.7254 128.524 15.5424 128.425C17.3053 128.345 18.8669 127.961 20.1536 126.728C21.4402 125.5 21.8428 124.01 21.9312 122.327C22.0344 120.592 22.0344 115.399 21.9312 113.664ZM19.5839 124.188C19.2009 125.106 18.4594 125.814 17.4919 126.185C16.0433 126.733 12.6058 126.606 11.0049 126.606C9.40401 126.606 5.9616 126.728 4.51785 126.185C3.55535 125.819 2.81384 125.111 2.42589 124.188C1.85134 122.805 1.98393 119.524 1.98393 117.995C1.98393 116.467 1.85625 113.181 2.42589 111.803C2.80892 110.885 3.55044 110.177 4.51785 109.806C5.96651 109.258 9.40401 109.385 11.0049 109.385C12.6058 109.385 16.0482 109.263 17.4919 109.806C18.4544 110.172 19.196 110.88 19.5839 111.803C20.1585 113.186 20.0259 116.467 20.0259 117.995C20.0259 119.524 20.1585 122.81 19.5839 124.188Z" fill="white"/>
</g>
<path d="M31.5703 124V112.578H32.8984V124H31.5703ZM41.7031 124V118.461C41.7031 117.763 41.5443 117.242 41.2266 116.898C40.9089 116.555 40.4115 116.383 39.7344 116.383C38.8385 116.383 38.1823 116.625 37.7656 117.109C37.349 117.594 37.1406 118.393 37.1406 119.508V124H35.8438V115.438H36.8984L37.1094 116.609H37.1719C37.4375 116.188 37.8099 115.862 38.2891 115.633C38.7682 115.398 39.3021 115.281 39.8906 115.281C40.9219 115.281 41.6979 115.531 42.2188 116.031C42.7396 116.526 43 117.32 43 118.414V124H41.7031ZM51.1953 121.664C51.1953 122.461 50.8984 123.076 50.3047 123.508C49.7109 123.94 48.8776 124.156 47.8047 124.156C46.6693 124.156 45.7839 123.977 45.1484 123.617V122.414C45.5599 122.622 46 122.786 46.4688 122.906C46.9427 123.026 47.3984 123.086 47.8359 123.086C48.513 123.086 49.0339 122.979 49.3984 122.766C49.763 122.547 49.9453 122.216 49.9453 121.773C49.9453 121.44 49.7995 121.156 49.5078 120.922C49.2214 120.682 48.6589 120.401 47.8203 120.078C47.0234 119.781 46.4557 119.523 46.1172 119.305C45.7839 119.081 45.5339 118.828 45.3672 118.547C45.2057 118.266 45.125 117.93 45.125 117.539C45.125 116.841 45.4089 116.292 45.9766 115.891C46.5443 115.484 47.3229 115.281 48.3125 115.281C49.2344 115.281 50.1354 115.469 51.0156 115.844L50.5547 116.898C49.6953 116.544 48.9167 116.367 48.2188 116.367C47.6042 116.367 47.1406 116.464 46.8281 116.656C46.5156 116.849 46.3594 117.115 46.3594 117.453C46.3594 117.682 46.4167 117.878 46.5312 118.039C46.651 118.201 46.8411 118.354 47.1016 118.5C47.362 118.646 47.862 118.857 48.6016 119.133C49.6172 119.503 50.3021 119.875 50.6562 120.25C51.0156 120.625 51.1953 121.096 51.1953 121.664ZM56.0781 123.086C56.3073 123.086 56.5286 123.07 56.7422 123.039C56.9557 123.003 57.125 122.966 57.25 122.93V123.922C57.1094 123.99 56.901 124.044 56.625 124.086C56.3542 124.133 56.1094 124.156 55.8906 124.156C54.2344 124.156 53.4062 123.284 53.4062 121.539V116.445H52.1797V115.82L53.4062 115.281L53.9531 113.453H54.7031V115.438H57.1875V116.445H54.7031V121.484C54.7031 122 54.8255 122.396 55.0703 122.672C55.3151 122.948 55.651 123.086 56.0781 123.086ZM64.2344 124L63.9766 122.781H63.9141C63.487 123.318 63.0599 123.682 62.6328 123.875C62.2109 124.062 61.6823 124.156 61.0469 124.156C60.1979 124.156 59.5312 123.938 59.0469 123.5C58.5677 123.062 58.3281 122.44 58.3281 121.633C58.3281 119.904 59.7109 118.997 62.4766 118.914L63.9297 118.867V118.336C63.9297 117.664 63.7839 117.169 63.4922 116.852C63.2057 116.529 62.7448 116.367 62.1094 116.367C61.3958 116.367 60.5885 116.586 59.6875 117.023L59.2891 116.031C59.7109 115.802 60.1719 115.622 60.6719 115.492C61.1771 115.362 61.6823 115.297 62.1875 115.297C63.2083 115.297 63.9635 115.523 64.4531 115.977C64.9479 116.43 65.1953 117.156 65.1953 118.156V124H64.2344ZM61.3047 123.086C62.112 123.086 62.7448 122.865 63.2031 122.422C63.6667 121.979 63.8984 121.359 63.8984 120.562V119.789L62.6016 119.844C61.5703 119.88 60.8255 120.042 60.3672 120.328C59.9141 120.609 59.6875 121.049 59.6875 121.648C59.6875 122.117 59.8281 122.474 60.1094 122.719C60.3958 122.964 60.7943 123.086 61.3047 123.086ZM74.8828 115.438V116.258L73.2969 116.445C73.4427 116.628 73.5729 116.867 73.6875 117.164C73.8021 117.456 73.8594 117.786 73.8594 118.156C73.8594 118.995 73.5729 119.664 73 120.164C72.4271 120.664 71.6406 120.914 70.6406 120.914C70.3854 120.914 70.1458 120.893 69.9219 120.852C69.3698 121.143 69.0938 121.51 69.0938 121.953C69.0938 122.188 69.1901 122.362 69.3828 122.477C69.5755 122.586 69.9062 122.641 70.375 122.641H71.8906C72.8177 122.641 73.5286 122.836 74.0234 123.227C74.5234 123.617 74.7734 124.185 74.7734 124.93C74.7734 125.878 74.3932 126.599 73.6328 127.094C72.8724 127.594 71.763 127.844 70.3047 127.844C69.1849 127.844 68.3203 127.635 67.7109 127.219C67.1068 126.802 66.8047 126.214 66.8047 125.453C66.8047 124.932 66.9714 124.482 67.3047 124.102C67.638 123.721 68.1068 123.464 68.7109 123.328C68.4922 123.229 68.3073 123.076 68.1562 122.867C68.0104 122.659 67.9375 122.417 67.9375 122.141C67.9375 121.828 68.0208 121.555 68.1875 121.32C68.3542 121.086 68.6172 120.859 68.9766 120.641C68.5339 120.458 68.1719 120.148 67.8906 119.711C67.6146 119.273 67.4766 118.773 67.4766 118.211C67.4766 117.273 67.7578 116.552 68.3203 116.047C68.8828 115.536 69.6797 115.281 70.7109 115.281C71.1589 115.281 71.5625 115.333 71.9219 115.438H74.8828ZM68.0547 125.438C68.0547 125.901 68.25 126.253 68.6406 126.492C69.0312 126.732 69.5911 126.852 70.3203 126.852C71.4089 126.852 72.2135 126.688 72.7344 126.359C73.2604 126.036 73.5234 125.596 73.5234 125.039C73.5234 124.576 73.3802 124.253 73.0938 124.07C72.8073 123.893 72.2682 123.805 71.4766 123.805H69.9219C69.3333 123.805 68.875 123.945 68.5469 124.227C68.2188 124.508 68.0547 124.911 68.0547 125.438ZM68.7578 118.18C68.7578 118.779 68.9271 119.232 69.2656 119.539C69.6042 119.846 70.0755 120 70.6797 120C71.9453 120 72.5781 119.385 72.5781 118.156C72.5781 116.87 71.9375 116.227 70.6562 116.227C70.0469 116.227 69.5781 116.391 69.25 116.719C68.9219 117.047 68.7578 117.534 68.7578 118.18ZM80.5469 115.281C80.9271 115.281 81.2682 115.312 81.5703 115.375L81.3906 116.578C81.0365 116.5 80.724 116.461 80.4531 116.461C79.7604 116.461 79.1667 116.742 78.6719 117.305C78.1823 117.867 77.9375 118.568 77.9375 119.406V124H76.6406V115.438H77.7109L77.8594 117.023H77.9219C78.2396 116.466 78.6224 116.036 79.0703 115.734C79.5182 115.432 80.0104 115.281 80.5469 115.281ZM88.4375 124L88.1797 122.781H88.1172C87.6901 123.318 87.263 123.682 86.8359 123.875C86.4141 124.062 85.8854 124.156 85.25 124.156C84.401 124.156 83.7344 123.938 83.25 123.5C82.7708 123.062 82.5312 122.44 82.5312 121.633C82.5312 119.904 83.9141 118.997 86.6797 118.914L88.1328 118.867V118.336C88.1328 117.664 87.987 117.169 87.6953 116.852C87.4089 116.529 86.9479 116.367 86.3125 116.367C85.599 116.367 84.7917 116.586 83.8906 117.023L83.4922 116.031C83.9141 115.802 84.375 115.622 84.875 115.492C85.3802 115.362 85.8854 115.297 86.3906 115.297C87.4115 115.297 88.1667 115.523 88.6562 115.977C89.151 116.43 89.3984 117.156 89.3984 118.156V124H88.4375ZM85.5078 123.086C86.3151 123.086 86.9479 122.865 87.4062 122.422C87.8698 121.979 88.1016 121.359 88.1016 120.562V119.789L86.8047 119.844C85.7734 119.88 85.0286 120.042 84.5703 120.328C84.1172 120.609 83.8906 121.049 83.8906 121.648C83.8906 122.117 84.0312 122.474 84.3125 122.719C84.599 122.964 84.9974 123.086 85.5078 123.086ZM102.992 124V118.43C102.992 117.747 102.846 117.237 102.555 116.898C102.263 116.555 101.81 116.383 101.195 116.383C100.388 116.383 99.7917 116.615 99.4062 117.078C99.0208 117.542 98.8281 118.255 98.8281 119.219V124H97.5312V118.43C97.5312 117.747 97.3854 117.237 97.0938 116.898C96.8021 116.555 96.3464 116.383 95.7266 116.383C94.9141 116.383 94.3177 116.628 93.9375 117.117C93.5625 117.602 93.375 118.398 93.375 119.508V124H92.0781V115.438H93.1328L93.3438 116.609H93.4062C93.651 116.193 93.9948 115.867 94.4375 115.633C94.8854 115.398 95.3854 115.281 95.9375 115.281C97.276 115.281 98.151 115.766 98.5625 116.734H98.625C98.8802 116.286 99.25 115.932 99.7344 115.672C100.219 115.411 100.771 115.281 101.391 115.281C102.359 115.281 103.083 115.531 103.562 116.031C104.047 116.526 104.289 117.32 104.289 118.414V124H102.992Z" fill="white"/>
</g>
</g>
</g>
<defs>
<clipPath id="clip0_14_1988">
<rect width="142" height="130" fill="white"/>
</clipPath>
<clipPath id="clip1_14_1988">
<rect width="106" height="88" fill="white" transform="translate(0 42)"/>
</clipPath>
<clipPath id="clip2_14_1988">
<rect width="100" height="24" fill="white" transform="translate(0 42)"/>
</clipPath>
<clipPath id="clip3_14_1988">
<rect width="22" height="24" fill="white" transform="translate(0 42)"/>
</clipPath>
<clipPath id="clip4_14_1988">
<rect width="102" height="24" fill="white" transform="translate(0 74)"/>
</clipPath>
<clipPath id="clip5_14_1988">
<rect width="22" height="24" fill="white" transform="translate(0 74)"/>
</clipPath>
<clipPath id="clip6_14_1988">
<rect width="106" height="24" fill="white" transform="translate(0 106)"/>
</clipPath>
<clipPath id="clip7_14_1988">
<rect width="22" height="24" fill="white" transform="translate(0 106)"/>
</clipPath>
</defs>
</svg>
